<svg xmlns="http://www.w3.org/2000/svg" width="158" height="36" viewBox="0 0 158 36">
    <defs>
        <linearGradient id="a" x1="24.96%" x2="75%" y1="24.983%" y2="75.017%">
            <stop offset="0%" stop-color="#DC1405" stop-opacity=".1"/>
            <stop offset="16%" stop-color="#DC1405" stop-opacity=".13"/>
            <stop offset="39%" stop-color="#DC1405" stop-opacity=".23"/>
            <stop offset="67%" stop-color="#DC1405" stop-opacity=".38"/>
            <stop offset="98%" stop-color="#DC1405" stop-opacity=".59"/>
            <stop offset="100%" stop-color="#DC1405" stop-opacity=".6"/>
        </linearGradient>
        <linearGradient id="b" x1="71.091%" x2="36.236%" y1="6.38%" y2="78.374%">
            <stop offset="0%" stop-color="#DC1405" stop-opacity=".1"/>
            <stop offset="16%" stop-color="#DC1405" stop-opacity=".13"/>
            <stop offset="39%" stop-color="#DC1405" stop-opacity=".23"/>
            <stop offset="67%" stop-color="#DC1405" stop-opacity=".38"/>
            <stop offset="98%" stop-color="#DC1405" stop-opacity=".59"/>
            <stop offset="100%" stop-color="#DC1405" stop-opacity=".6"/>
        </linearGradient>
        <linearGradient id="c" x1="9.716%" x2="123.449%" y1="29.383%" y2="70.686%">
            <stop offset="0%" stop-color="#DC1405" stop-opacity=".1"/>
            <stop offset="16%" stop-color="#DC1405" stop-opacity=".13"/>
            <stop offset="39%" stop-color="#DC1405" stop-opacity=".23"/>
            <stop offset="67%" stop-color="#DC1405" stop-opacity=".38"/>
            <stop offset="98%" stop-color="#DC1405" stop-opacity=".59"/>
            <stop offset="100%" stop-color="#DC1405" stop-opacity=".6"/>
        </linearGradient>
    </defs>
    <g fill="none" fill-rule="nonzero">
        <path fill="#FFF" d="M88.064 13.866v3.571H83.73v9.25c0 1.659.785 1.974 2.211 1.974a6.132 6.132 0 0 0 1.786-.254l.32-.105v3.566l-.182.044a13.91 13.91 0 0 1-3.732.409c-1.033 0-4.423-.337-4.423-4.782V17.437h-2.543v-3.571h2.543V9.304L83.713 7.9v5.966h4.351zm26.876-5.828l-4.793 23.89h-4.064l-4.235-16.636-4.302 16.636h-4.002l-5.01-23.89h4.18l3.246 16.21 4.036-16.21h3.87c.387 1.515 4.047 16.034 4.091 16.189.045-.155 2.892-15.636 2.991-16.189h3.992zm4.147 12.982c.1-1.703 1.305-3.931 3.87-3.931 2.765 0 3.6 2.444 3.693 3.931h-7.563zm4.03-7.453c-3.051 0-8.199 1.99-8.199 9.449 0 8.885 7.066 9.333 8.481 9.333 1.961.081 3.91-.345 5.657-1.239l.143-.066V27.24l-.381.227a9.858 9.858 0 0 1-4.882 1.266c-4.202 0-4.794-3.002-4.849-4.268h11.544v-.205c.37-2.494 0-5.982-2.04-8.36a6.928 6.928 0 0 0-5.473-2.333zm22.337 13.369c0 2.665-2.372 5.43-6.85 5.43a13.86 13.86 0 0 1-5.7-1.245l-.144-.066v-3.87l.37.204a12.219 12.219 0 0 0 5.369 1.438c1.813 0 2.853-.647 2.853-1.786s-.636-1.393-2.212-2.09l-.625-.265a215.02 215.02 0 0 1-2.526-1.106c-1.1-.487-3.517-1.581-3.517-4.882 0-1.775 1.36-5.114 6.475-5.114 1.72-.001 3.424.327 5.02.967l.144.072v3.815l-.37-.177a10.068 10.068 0 0 0-4.65-1.178c-.587 0-2.516.117-2.516 1.466 0 1.022 1.216 1.564 2.211 2.007l.188.077c.708.31 1.266.553 1.742.763l.52.216c3.074 1.349 4.23 2.764 4.23 5.335l-.012-.011zM55.063 8.038h3.903V31.94h-3.793L44.74 15.303V31.94h-3.87V8.038h3.87l10.323 16.775V8.038zm97.324 9.4v9.25c0 1.658.785 1.973 2.212 1.973.6 0 1.197-.084 1.775-.249l.326-.11v3.566l-.205.044a13.64 13.64 0 0 1-3.71.409c-1.039 0-4.423-.337-4.423-4.782V17.437h-2.515V17.2 13.866h2.554V9.304l3.986-1.404v5.966h4.335v3.571h-4.335zm-80.329 9.227a5.485 5.485 0 0 1-4.135 2.057c-1.72 0-2.82-.984-2.82-2.516 0-1.531 1.255-2.471 3.439-2.471h3.516v2.93zm-3.063-13.18a14.226 14.226 0 0 0-5.39.956l-.16.06v3.677l.364-.182a13.7 13.7 0 0 1 4.595-.868c3.51 0 3.665 1.338 3.676 3.074h-3.754c-4.976 0-7.231 3.118-7.231 6.004 0 4.025 3.2 6.115 6.38 6.115a6.53 6.53 0 0 0 4.628-1.78v1.399h3.958V19.726c0-5.634-4.943-6.242-7.066-6.242z"/>
        <path fill="#FFF" d="M13.96 32.208l2.328-4.041 2.328 4.041h9.31l4.65-8.055-4.655-8.061h-4.656l2.328-4.03L20.943 4h-9.31l-4.65 8.056 2.339 4.036H4.655l-4.65 8.055H0v.006l4.655 8.055h9.305" opacity=".05"/>
        <path fill="url(#a)" d="M23.265 12.092l-2.322 4.025h-4.655l-2.322 4.03h9.305l4.65-8.055z" transform="translate(0 4)"/>
        <path fill="url(#b)" d="M9.322 12.092h4.638l2.328 4.025h4.655l-4.655-8.061H6.983z" transform="translate(0 4)"/>
        <path fill="url(#c)" d="M16.288 24.167l-2.322-4.02 2.322-4.03-2.328-4.025-4.65 8.055 4.65 8.061z" transform="translate(0 4)"/>
        <path fill="#D70028" d="M32.576 24.153l-4.655-8.061-4.65 8.055h-9.305l4.65 8.061h9.31zM9.31 24.147l4.65-8.055H4.655l-4.65 8.055-.005.006 4.655 8.055h9.305zM25.593 12.061L20.943 4h-9.305l-4.655 8.056h9.305l4.655 8.06z"/>
        <path fill="#C8001E" d="M27.92 16.092l4.656 8.06-4.65 8.056-4.655-8.06zM13.96 32.208H4.655L0 24.153l.006-.006H9.31zM16.288 12.056l4.655 8.06 4.65-8.055L20.943 4z"/>
    </g>
</svg>
